<svg width="219" height="232" viewBox="0 0 219 232" fill="none" xmlns="http://www.w3.org/2000/svg">
<rect width="219" height="232" rx="109.5" fill="black"/>
<path d="M43.152 162.736C43.152 170.992 48.336 177.904 55.824 180.976C70.992 186.928 86.736 190 103.44 190H109.2C128.784 190 144.72 185.776 157.008 177.136C169.296 168.496 175.44 156.784 175.44 142C175.44 127.216 169.296 115.504 157.008 106.864C144.72 98.224 128.784 94 109.2 94C90.576 94 81.36 90.736 81.36 84.4C81.36 78.064 90.576 74.8 109.2 74.8C121.104 74.8 132.624 77.104 143.76 81.52C145.872 82.288 148.176 82.672 150.288 82.672C160.848 82.672 169.488 74.032 169.488 63.472C169.488 55.216 164.496 48.304 156.816 45.424C141.648 39.472 125.904 36.4 109.2 36.4C89.616 36.4 73.68 40.624 61.392 49.264C49.104 57.904 42.96 69.616 42.96 84.4C42.96 99.184 49.104 110.896 61.392 119.536C73.68 128.176 89.616 132.4 109.2 132.4C127.824 132.4 137.04 135.664 137.04 142C137.04 148.336 127.824 151.6 109.2 151.6H103.44C91.728 151.6 81.168 149.68 71.568 145.84C67.92 144.304 64.848 143.536 62.352 143.536C51.792 143.536 43.152 152.176 43.152 162.736ZM109.2 159.28C132.816 159.28 144.72 153.52 144.72 142C144.72 130.48 132.816 124.72 109.2 124.72C91.344 124.72 77.136 121.264 66.576 114.544C56.016 107.824 50.64 97.648 50.64 84.4C50.64 71.92 56.016 61.936 66.768 54.832C77.712 47.728 91.728 44.08 109.2 44.08C118.224 44.08 128.208 45.424 139.152 47.92C133.776 51.76 131.088 56.944 131.088 63.472C131.088 65.392 131.472 67.504 132.048 69.616C125.904 67.888 118.224 67.12 109.2 67.12C85.584 67.12 73.68 72.88 73.68 84.4C73.68 95.92 85.584 101.68 109.2 101.68C127.056 101.68 141.264 105.136 151.824 111.856C162.384 118.576 167.76 128.752 167.76 142C167.76 154.48 162.384 164.464 151.44 171.568C140.688 178.672 126.672 182.32 109.2 182.32H103.44C94.416 182.32 84.432 180.976 73.488 178.48C78.864 174.832 81.552 169.456 81.552 162.736C81.552 160.816 81.168 158.704 80.592 156.592C88.08 158.32 95.568 159.28 103.44 159.28H109.2ZM142.032 55.408C146.64 50.8 153.936 50.8 158.352 55.408C162.96 59.824 162.96 67.12 158.352 71.728C153.936 76.144 146.64 76.144 142.032 71.728C137.616 67.12 137.616 59.824 142.032 55.408ZM54.096 154.672C58.704 150.064 66 150.064 70.416 154.672C75.024 159.088 75.024 166.384 70.416 170.992C66 175.408 58.704 175.408 54.096 170.992C49.68 166.384 49.68 159.088 54.096 154.672Z" fill="white"/>
</svg>
